<svg width="{90}" height="{80}" viewBox="0 0 94 87" class="fill-current" fill="currentColor" xmlns="http://www.w3.org/2000/svg">
  <g clippath="url(#clip0_54_1748)">
    <path fillrule="evenodd" cliprule="evenodd" d="M0 33.3604C2.00952 15.3727 17.8227 1.17684 37.4681 0.0016515C37.2392 0.171724 37.0283 0.365033 36.8398 0.579642C28.5795 9.98114 23.4449 21.3679 22.0096 33.3604H0ZM24.5203 55.3635C24.5203 55.6365 24.5313 55.9079 24.5531 56.1771V71.6874C11.2356 66.5289 1.54402 54.9478 3.24667e-05 41.1283H22.0097C22.501 45.2327 23.4255 49.2663 24.7605 53.1735C24.6025 53.8852 24.5203 54.6182 24.5203 55.3635ZM30.4612 41.1283H42.2137L31.5989 45.3849C31.4846 45.4307 31.3714 45.4781 31.2593 45.527C30.93 44.0742 30.6635 42.6068 30.4612 41.1283ZM80.2169 33.3604H58.1816C56.7463 21.3679 51.6117 9.98114 43.3514 0.579642C43.1623 0.364338 42.9506 0.170472 42.7209 0C62.3792 1.16347 78.206 15.3642 80.2169 33.3604ZM30.4612 33.3604H49.73C48.564 24.8356 45.2623 16.6836 40.0956 9.5549C34.9289 16.6836 31.6273 24.8356 30.4612 33.3604ZM64.7939 41.6981C63.8641 41.3252 62.8089 41.3252 61.8791 41.6981L35.1995 52.3969C34.9176 52.51 34.6565 52.6533 34.4201 52.8219C33.0201 53.5476 32.0739 54.9338 32.0739 56.5245V75.3445C32.0739 77.6866 34.1254 79.5851 36.6561 79.5851C39.1868 79.5851 41.2383 77.6866 41.2383 75.3445V61.0447L61.8791 69.3222C62.8089 69.6951 63.8641 69.6951 64.7939 69.3222L91.4734 58.6231C92.8143 58.0855 93.6817 56.8623 93.6817 55.51C93.6817 54.1577 92.8143 52.9345 91.4734 52.3969L64.7939 41.6981ZM45.1017 69.7224L58.6904 75.1717C61.6534 76.3599 65.0157 76.3599 67.9788 75.1717L81.5672 69.7224L81.5692 78.1651C81.5692 78.9065 81.3073 79.6274 80.8225 80.2183L77.9065 78.1676C80.8225 80.2183 80.8239 80.2171 80.8225 80.2183L80.8178 80.2239L80.8118 80.2308L80.7997 80.2457L80.7702 80.2805L80.6889 80.3737C80.6258 80.4458 80.5426 80.5371 80.4398 80.6446C80.235 80.8597 79.9497 81.1405 79.5817 81.4649C78.8465 82.1137 77.7736 82.9402 76.3387 83.7549C73.4462 85.398 69.1471 86.9534 63.3334 86.9534C57.5193 86.9534 53.2248 85.3979 50.3361 83.753C48.9036 82.9377 47.8332 82.11 47.0998 81.4606C46.7327 81.1356 46.4484 80.8541 46.2437 80.6391C46.1413 80.5309 46.0586 80.4396 45.9951 80.3675L45.9144 80.2743L45.8847 80.2389L45.8725 80.2239L45.867 80.2171C45.8658 80.2159 45.862 80.2109 48.7858 78.1664L45.862 80.2109C45.3827 79.6243 45.1226 78.909 45.1209 78.1726L45.1017 69.7224Z" fill="url(#paint0_linear_54_1748)" />
  </g>
  <defs>
    <linearGradient id="paint0_linear_54_1748" x1="46.8409" y1="{0}" x2="46.8409" y2="86.9534" gradientUnits="userSpaceOnUse">
      <stop stopcolor="#3B2C55" />
      <stop offset="{1}" stopcolor="#6949A0" />
    </linearGradient>
    <clipPath id="clip0_54_1748">
      <rect width="{94}" height="{87}" fill="white" />
    </clipPath>
  </defs>
</svg>
