<svg classname="mx-auto" width="{90}" height="{80}" viewBox="0 0 92 88" fill="none" xmlns="http://www.w3.org/2000/svg">
  <path fillrule="evenodd" cliprule="evenodd" d="M82.2672 56.4944H47.738C55.5771 55.8858 61.7342 49.8043 61.7342 42.3917C61.7342 34.5753 54.8879 28.2388 46.4426 28.2388H35.1606C37.7342 25.0349 39.257 21.0649 39.257 16.7657C39.257 10.0627 35.5552 4.15986 29.9404 0.713013H82.2672C87.2694 0.713013 91.3234 4.46575 91.3234 9.09497V48.1125C91.3234 52.7417 87.2694 56.4944 82.2672 56.4944ZM18.4593 28.2468C25.3103 28.2468 30.8642 23.1066 30.8642 16.7657C30.8642 10.4249 25.3103 5.2846 18.4593 5.2846C11.6083 5.2846 6.05443 10.4249 6.05443 16.7657C6.05443 23.1066 11.6083 28.2468 18.4593 28.2468ZM53.3413 42.3917C53.3413 38.8654 50.2526 36.0067 46.4426 36.0067H18.4618C8.63903 36.0067 0.676117 43.3766 0.676117 52.4679V59.9595C0.676117 63.2666 3.57283 65.9475 7.14611 65.9475H8.29855L10.1918 82.1661C10.5602 85.3218 13.4383 87.713 16.8673 87.713H20.2397C23.5903 87.713 26.428 85.4268 26.8899 82.3557L31.9395 48.7767H46.4426C50.2526 48.7767 53.3413 45.918 53.3413 42.3917Z" fill="url(#paint0_linear_327_931)" />
  <defs>
    <linearGradient id="paint0_linear_327_931" x1="45.9998" y1="0.713013" x2="45.9998" y2="87.713" gradientUnits="userSpaceOnUse">
      <stop stopcolor="#3B2C55" />
      <stop offset="{1}" stopcolor="#6949A0" />
    </linearGradient>
  </defs>
</svg>
