<svg width="{90}" height="{80}" viewBox="0 0 94 78" fill="none" xmlns="http://www.w3.org/2000/svg">
  <path fillrule="evenodd" cliprule="evenodd" d="M53.7143 18.9645C53.7143 29.2606 44.696 37.6073 33.5714 37.6073C22.4469 37.6073 13.4286 29.2606 13.4286 18.9645C13.4286 8.66833 22.4469 0.321609 33.5714 0.321609C44.696 0.321609 53.7143 8.66833 53.7143 18.9645ZM33.5714 43.8214C15.0305 43.8214 0 57.7327 0 74.8929C0 76.6086 1.50305 78 3.35714 78H63.7857C65.6398 78 67.1429 76.6086 67.1429 74.8929C67.1429 57.7327 52.1124 43.8214 33.5714 43.8214ZM90.6435 78H75.0496C75.3665 77.0157 75.5364 75.9723 75.5364 74.8929C75.5364 62.2089 68.9671 50.9453 58.8059 43.8571C59.3437 43.8334 59.8849 43.8214 60.4291 43.8214C78.9701 43.8214 94.0007 57.7327 94.0007 74.8929C94.0007 76.6086 92.4973 78 90.6435 78ZM60.4291 37.6073C58.4032 37.6073 56.4472 37.3305 54.6028 36.8155C59.2631 32.1148 62.1077 25.8471 62.1077 18.9645C62.1077 12.0818 59.2631 5.81411 54.6027 1.11337C56.4472 0.598393 58.4032 0.321609 60.4291 0.321609C71.5535 0.321609 80.5721 8.66833 80.5721 18.9645C80.5721 29.2606 71.5535 37.6073 60.4291 37.6073Z" fill="url(#paint0_linear_327_156)" />
  <defs>
    <linearGradient id="paint0_linear_327_156" x1="47.0003" y1="0.321609" x2="47.0003" y2="{78}" gradientUnits="userSpaceOnUse">
      <stop stopcolor="#3B2C55" />
      <stop offset="{1}" stopcolor="#6949A0" />
    </linearGradient>
  </defs>
</svg>
